<mxfile host="app.diagrams.net" modified="2023-12-29T17:05:06.827Z" agent="Mozilla/5.0 (Windows NT 10.0; Win64; x64) AppleWebKit/537.36 (KHTML, like Gecko) Chrome/120.0.0.0 Safari/537.36" etag="vp3gAF4ZNcV7it9S8N8x" version="22.1.16" type="github">
  <diagram name="Page-1" id="P8C312vG72IYRPfNx-oY">
    <mxGraphModel dx="880" dy="460" grid="1" gridSize="10" guides="1" tooltips="1" connect="1" arrows="1" fold="1" page="1" pageScale="1" pageWidth="850" pageHeight="1100" math="0" shadow="0">
      <root>
        <mxCell id="0" />
        <mxCell id="1" parent="0" />
        <mxCell id="G-zeOlZfZlEMPLptpVna-1" value="" style="rounded=0;whiteSpace=wrap;html=1;" vertex="1" parent="1">
          <mxGeometry x="360" y="210" width="120" height="60" as="geometry" />
        </mxCell>
        <mxCell id="G-zeOlZfZlEMPLptpVna-2" value="" style="rounded=0;whiteSpace=wrap;html=1;" vertex="1" parent="1">
          <mxGeometry x="360" y="120" width="120" height="60" as="geometry" />
        </mxCell>
        <mxCell id="G-zeOlZfZlEMPLptpVna-4" value="" style="endArrow=none;html=1;rounded=0;entryX=0;entryY=0.633;entryDx=0;entryDy=0;entryPerimeter=0;" edge="1" parent="1">
          <mxGeometry width="50" height="50" relative="1" as="geometry">
            <mxPoint x="480" y="149.5" as="sourcePoint" />
            <mxPoint x="560" y="149.5" as="targetPoint" />
          </mxGeometry>
        </mxCell>
        <mxCell id="G-zeOlZfZlEMPLptpVna-5" value="" style="endArrow=none;html=1;rounded=0;entryX=0;entryY=0.5;entryDx=0;entryDy=0;entryPerimeter=0;" edge="1" parent="1">
          <mxGeometry width="50" height="50" relative="1" as="geometry">
            <mxPoint x="280" y="239.5" as="sourcePoint" />
            <mxPoint x="360" y="239.5" as="targetPoint" />
          </mxGeometry>
        </mxCell>
        <mxCell id="G-zeOlZfZlEMPLptpVna-6" value="" style="endArrow=none;html=1;rounded=0;entryX=0;entryY=0.5;entryDx=0;entryDy=0;entryPerimeter=0;" edge="1" parent="1">
          <mxGeometry width="50" height="50" relative="1" as="geometry">
            <mxPoint x="480" y="239.5" as="sourcePoint" />
            <mxPoint x="560" y="239.5" as="targetPoint" />
          </mxGeometry>
        </mxCell>
        <mxCell id="G-zeOlZfZlEMPLptpVna-7" value="" style="endArrow=none;html=1;rounded=0;entryX=0;entryY=0.5;entryDx=0;entryDy=0;entryPerimeter=0;" edge="1" parent="1">
          <mxGeometry width="50" height="50" relative="1" as="geometry">
            <mxPoint x="280" y="149.5" as="sourcePoint" />
            <mxPoint x="360" y="149.5" as="targetPoint" />
          </mxGeometry>
        </mxCell>
        <mxCell id="G-zeOlZfZlEMPLptpVna-8" value="Load and Execute Object Program" style="text;html=1;strokeColor=none;fillColor=none;align=center;verticalAlign=middle;whiteSpace=wrap;rounded=0;" vertex="1" parent="1">
          <mxGeometry x="370" y="220" width="100" height="40" as="geometry" />
        </mxCell>
        <mxCell id="G-zeOlZfZlEMPLptpVna-9" value="Compiler" style="text;html=1;strokeColor=none;fillColor=none;align=center;verticalAlign=middle;whiteSpace=wrap;rounded=0;" vertex="1" parent="1">
          <mxGeometry x="390" y="135" width="60" height="30" as="geometry" />
        </mxCell>
        <mxCell id="G-zeOlZfZlEMPLptpVna-10" value="Source Program" style="text;html=1;strokeColor=none;fillColor=none;align=center;verticalAlign=middle;whiteSpace=wrap;rounded=0;" vertex="1" parent="1">
          <mxGeometry x="150" y="130" width="130" height="30" as="geometry" />
        </mxCell>
        <mxCell id="G-zeOlZfZlEMPLptpVna-11" value="Object Program Input" style="text;html=1;strokeColor=none;fillColor=none;align=center;verticalAlign=middle;whiteSpace=wrap;rounded=0;" vertex="1" parent="1">
          <mxGeometry x="150" y="225" width="130" height="30" as="geometry" />
        </mxCell>
        <mxCell id="G-zeOlZfZlEMPLptpVna-12" value="Object Program" style="text;html=1;strokeColor=none;fillColor=none;align=center;verticalAlign=middle;whiteSpace=wrap;rounded=0;" vertex="1" parent="1">
          <mxGeometry x="560" y="135" width="130" height="30" as="geometry" />
        </mxCell>
        <mxCell id="G-zeOlZfZlEMPLptpVna-13" value="Object Program Output" style="text;html=1;strokeColor=none;fillColor=none;align=center;verticalAlign=middle;whiteSpace=wrap;rounded=0;" vertex="1" parent="1">
          <mxGeometry x="560" y="225" width="130" height="30" as="geometry" />
        </mxCell>
      </root>
    </mxGraphModel>
  </diagram>
</mxfile>
